<svg width="121.000000" height="140.000000" viewBox="0 0 121 140" fill="none" xmlns="http://www.w3.org/2000/svg" xmlns:xlink="http://www.w3.org/1999/xlink">
	<desc>
			Created with Pixso.
	</desc>
	<defs/>
	<path id="Vector" d="M121 35L100.34 23.05L81.16 34.14L81.16 11.95L60.5 0L39.84 11.95L39.84 34.13L20.66 23.04L0 35L0 58.91L19.17 70L0 81.09L0 105L20.65 116.95L39.83 105.86L39.83 128.04L60.49 140L81.14 128.04L81.14 105.86L100.32 116.95L121 105L121 81.09L101.82 70L121 58.91L121 35ZM100.34 24.77L118.77 35.43L81.28 57.18L81.16 35.86L100.34 24.77ZM79.68 36.72L79.8 58.05L61.24 68.82L61.24 24.34L79.68 13.68L79.68 36.72ZM41.32 13.68L59.75 24.34L59.75 68.82L41.32 58.13L41.32 13.68ZM20.65 24.77L39.83 35.86L39.83 57.25L2.23 35.43L20.65 24.77ZM1.48 58.05L1.48 36.73L39.09 58.55L20.66 69.14L1.48 58.05ZM1.48 104.14L1.48 82.82L19.91 93.48L19.91 114.8L1.48 104.14ZM2.23 81.52L21.03 70.65L40.58 59.41L59.01 70.1L20.66 92.18L2.23 81.52ZM59.75 137.85L41.32 127.18L41.32 105L59.75 94.34L59.75 137.85ZM41.32 103.28L40.21 103.93L21.4 114.81L21.4 93.49L59.75 71.41L59.75 92.62L41.32 103.28ZM60.5 23.05C51.28 23.05 42.07 12.39 42.07 12.39L60.5 1.73L78.92 12.39C78.92 12.39 69.71 23.05 60.5 23.05ZM79.67 127.18L61.24 137.85L61.24 94.34L79.67 105L79.67 127.18ZM99.59 114.8L80.78 103.92L79.67 103.27L61.24 92.61L62 70L100.5 92L99.59 114.8ZM119.51 104.14L101.09 114.8L101.09 93.3L119.51 82.81L119.51 104.14ZM118.75 81.52L100.18 92.1L61.98 70.11L80.54 59.34L98.85 70L99.47 70.36L99.84 70.58L99.96 70.65L118.75 81.52ZM119.51 58.05L100.34 69.14L82.03 58.48L119.52 36.73L119.52 58.05L119.51 58.05Z" fill="#FFFFFF" fill-opacity="1.000000" fill-rule="nonzero"/>
</svg>
